<svg width="147" height="574" viewBox="0 0 147 574" fill="none" xmlns="http://www.w3.org/2000/svg">
<rect x="0.5" y="0.5" width="146" height="58" rx="8.5" stroke="#81FE88"/>
<path d="M32.9173 21.622H38.8353C40.4926 21.622 41.798 22.04 42.7513 22.876C43.7193 23.6973 44.2033 24.8707 44.2033 26.396C44.2033 27.9507 43.7266 29.1313 42.7733 29.938C41.82 30.73 40.5073 31.126 38.8353 31.126H35.1613V37H32.9173V21.622ZM38.5933 29.256C39.62 29.256 40.434 29.0433 41.0353 28.618C41.6366 28.1927 41.9373 27.452 41.9373 26.396C41.9373 25.34 41.6366 24.5993 41.0353 24.174C40.434 23.734 39.62 23.514 38.5933 23.514H35.1613V29.256H38.5933ZM49.6017 37.33C48.1791 37.33 47.1011 36.9487 46.3677 36.186C45.6491 35.4233 45.2897 34.404 45.2897 33.128V26.44H47.5117V33.04C47.5117 34.7267 48.3551 35.57 50.0417 35.57C51.5231 35.57 52.6817 34.9027 53.5177 33.568V26.44H55.7397V37H53.5837V35.504C53.0851 36.1347 52.4911 36.5967 51.8017 36.89C51.1271 37.1833 50.3937 37.33 49.6017 37.33ZM65.1471 37.33C64.1938 37.33 63.3651 37.1833 62.6611 36.89C61.9718 36.582 61.3338 36.1053 60.7471 35.46V37H58.5911V20.742H60.8131V27.848C61.2971 27.276 61.9205 26.8433 62.6831 26.55C63.4458 26.2567 64.2671 26.11 65.1471 26.11C66.2031 26.11 67.1491 26.352 67.9851 26.836C68.8358 27.3053 69.4958 27.9653 69.9651 28.816C70.4491 29.6667 70.6911 30.642 70.6911 31.742C70.6911 32.8567 70.4491 33.8393 69.9651 34.69C69.4958 35.526 68.8358 36.1787 67.9851 36.648C67.1491 37.1027 66.2031 37.33 65.1471 37.33ZM64.6411 35.57C65.3598 35.57 66.0051 35.416 66.5771 35.108C67.1638 34.7853 67.6185 34.3307 67.9411 33.744C68.2785 33.1573 68.4471 32.49 68.4471 31.742C68.4471 30.994 68.2785 30.3267 67.9411 29.74C67.6185 29.1533 67.1638 28.6987 66.5771 28.376C66.0051 28.0533 65.3598 27.892 64.6411 27.892C63.7465 27.892 62.9471 28.134 62.2431 28.618C61.5391 29.102 61.0625 29.7473 60.8131 30.554V32.93C61.0918 33.7367 61.5685 34.382 62.2431 34.866C62.9325 35.3353 63.7318 35.57 64.6411 35.57ZM73.1146 20.742H75.3366V37H73.1146V20.742ZM79.5044 24.372C79.1377 24.372 78.8297 24.2473 78.5804 23.998C78.331 23.7487 78.2064 23.4407 78.2064 23.074C78.2064 22.7073 78.331 22.3993 78.5804 22.15C78.8297 21.9007 79.1377 21.776 79.5044 21.776C79.8857 21.776 80.201 21.9007 80.4504 22.15C80.7144 22.3993 80.8464 22.7073 80.8464 23.074C80.8464 23.4407 80.7144 23.7487 80.4504 23.998C80.201 24.2473 79.8857 24.372 79.5044 24.372ZM78.3824 26.44H80.6484V37H78.3824V26.44ZM89.2724 37.33C88.099 37.33 87.0577 37.11 86.1484 36.67C85.239 36.23 84.5277 35.592 84.0144 34.756C83.5157 33.9053 83.2664 32.9007 83.2664 31.742C83.2664 30.5833 83.5157 29.586 84.0144 28.75C84.5277 27.8993 85.239 27.2467 86.1484 26.792C87.0724 26.3373 88.1284 26.11 89.3164 26.11C90.9297 26.11 92.2204 26.4253 93.1884 27.056V28.882C92.235 28.222 91.0177 27.892 89.5364 27.892C88.3337 27.892 87.3584 28.222 86.6104 28.882C85.877 29.5273 85.5104 30.4807 85.5104 31.742C85.5104 33.0033 85.877 33.9567 86.6104 34.602C87.3437 35.2473 88.3044 35.57 89.4924 35.57C90.9737 35.57 92.2497 35.218 93.3204 34.514V36.318C92.807 36.67 92.2204 36.9267 91.5604 37.088C90.915 37.2493 90.1524 37.33 89.2724 37.33ZM99.4142 37.33C98.1382 37.33 97.1115 37.0073 96.3342 36.362C95.5715 35.702 95.1902 34.8147 95.1902 33.7C95.1902 32.5267 95.5569 31.6247 96.2902 30.994C97.0382 30.3487 98.0942 30.026 99.4582 30.026C100.91 30.026 102.142 30.3193 103.154 30.906V30.356C103.154 29.52 102.898 28.904 102.384 28.508C101.886 28.0973 101.094 27.892 100.008 27.892C99.3629 27.892 98.7322 27.958 98.1162 28.09C97.5149 28.2073 96.9722 28.376 96.4882 28.596V26.792C96.9282 26.5867 97.5002 26.4253 98.2042 26.308C98.9082 26.176 99.5902 26.11 100.25 26.11C101.996 26.11 103.286 26.4987 104.122 27.276C104.973 28.0387 105.398 29.102 105.398 30.466V37H103.308V35.812C102.854 36.3107 102.311 36.692 101.68 36.956C101.064 37.2053 100.309 37.33 99.4142 37.33ZM99.9642 35.636C100.668 35.636 101.306 35.4967 101.878 35.218C102.45 34.9393 102.876 34.5507 103.154 34.052V32.622C102.201 32.006 101.138 31.698 99.9642 31.698C99.1135 31.698 98.4755 31.8667 98.0502 32.204C97.6395 32.5267 97.4342 33.0253 97.4342 33.7C97.4342 34.9907 98.2775 35.636 99.9642 35.636ZM108.156 26.44H110.312V28.332C110.752 27.6867 111.368 27.21 112.16 26.902C112.966 26.594 113.898 26.44 114.954 26.44V28.178C113.824 28.178 112.856 28.3613 112.05 28.728C111.243 29.0947 110.686 29.674 110.378 30.466V37H108.156V26.44Z" fill="#81FE88"/>
<path d="M78.8125 110L85.5 116.688V131.312C85.5 132.062 85.2292 132.708 84.6875 133.25C84.1875 133.75 83.5625 134 82.8125 134H64.1875C63.4375 134 62.7917 133.75 62.25 133.25C61.75 132.708 61.5 132.062 61.5 131.312V112.688C61.5 111.938 61.75 111.312 62.25 110.812C62.7917 110.271 63.4375 110 64.1875 110H78.8125ZM66.8125 115.312V118H73.5V115.312H66.8125ZM80.1875 128.688V126H66.8125V128.688H80.1875ZM80.1875 123.312V120.688H66.8125V123.312H80.1875ZM77.5 118H82.8125L77.5 112.688V118Z" fill="white"/>
<path d="M48.9984 154.622H59.1404V156.514H51.2424V161.42H57.1384V163.202H51.2424V170H48.9984V154.622ZM65.3767 170.33C63.426 170.33 61.8933 169.846 60.7787 168.878C59.6787 167.895 59.1287 166.517 59.1287 164.742C59.1287 163.011 59.62 161.64 60.6027 160.628C61.6 159.616 63.0153 159.11 64.8487 159.11C66.066 159.11 67.1 159.345 67.9507 159.814C68.8013 160.269 69.4393 160.907 69.8647 161.728C70.3047 162.535 70.5247 163.459 70.5247 164.5V165.6H61.2407C61.314 166.597 61.732 167.345 62.4947 167.844C63.272 168.328 64.3207 168.57 65.6407 168.57C66.3153 168.57 66.9973 168.511 67.6867 168.394C68.376 168.262 68.9847 168.093 69.5127 167.888V169.67C69.0433 169.861 68.42 170.015 67.6427 170.132C66.88 170.264 66.1247 170.33 65.3767 170.33ZM68.4347 164.038C68.4053 163.041 68.0753 162.271 67.4447 161.728C66.8287 161.171 65.9487 160.892 64.8047 160.892C63.69 160.892 62.8247 161.178 62.2087 161.75C61.5927 162.322 61.27 163.085 61.2407 164.038H68.4347ZM78.7614 170.33C76.8108 170.33 75.2781 169.846 74.1634 168.878C73.0634 167.895 72.5134 166.517 72.5134 164.742C72.5134 163.011 73.0048 161.64 73.9874 160.628C74.9848 159.616 76.4001 159.11 78.2334 159.11C79.4508 159.11 80.4848 159.345 81.3354 159.814C82.1861 160.269 82.8241 160.907 83.2494 161.728C83.6894 162.535 83.9094 163.459 83.9094 164.5V165.6H74.6254C74.6988 166.597 75.1168 167.345 75.8794 167.844C76.6568 168.328 77.7054 168.57 79.0254 168.57C79.7001 168.57 80.3821 168.511 81.0714 168.394C81.7608 168.262 82.3694 168.093 82.8974 167.888V169.67C82.4281 169.861 81.8048 170.015 81.0274 170.132C80.2648 170.264 79.5094 170.33 78.7614 170.33ZM81.8194 164.038C81.7901 163.041 81.4601 162.271 80.8294 161.728C80.2134 161.171 79.3334 160.892 78.1894 160.892C77.0748 160.892 76.2094 161.178 75.5934 161.75C74.9774 162.322 74.6548 163.085 74.6254 164.038H81.8194ZM91.4422 170.33C90.3862 170.33 89.4329 170.103 88.5822 169.648C87.7462 169.179 87.0862 168.526 86.6022 167.69C86.1329 166.839 85.8982 165.857 85.8982 164.742C85.8982 163.642 86.1329 162.667 86.6022 161.816C87.0862 160.965 87.7462 160.305 88.5822 159.836C89.4329 159.352 90.3862 159.11 91.4422 159.11C93.3489 159.11 94.7935 159.689 95.7762 160.848V153.742H97.9982V170H95.8422V168.46C95.2555 169.105 94.6102 169.582 93.9062 169.89C93.2169 170.183 92.3955 170.33 91.4422 170.33ZM91.9482 168.57C92.8575 168.57 93.6495 168.335 94.3242 167.866C95.0135 167.382 95.4975 166.737 95.7762 165.93V163.554C95.5269 162.747 95.0502 162.102 94.3462 161.618C93.6569 161.134 92.8575 160.892 91.9482 160.892C91.2295 160.892 90.5769 161.053 89.9902 161.376C89.4182 161.699 88.9635 162.153 88.6262 162.74C88.3035 163.327 88.1422 163.994 88.1422 164.742C88.1422 165.49 88.3035 166.157 88.6262 166.744C88.9635 167.331 89.4182 167.785 89.9902 168.108C90.5769 168.416 91.2295 168.57 91.9482 168.57Z" fill="white"/>
<path d="M69 259.375C70.5833 260.208 72.0833 260.625 73.5 260.625C74.9167 260.625 76.3958 260.208 77.9375 259.375C79.5208 258.542 80.7083 257.521 81.5 256.312C81.4583 255.146 80.5208 254.167 78.6875 253.375C76.8542 252.583 75.125 252.188 73.5 252.188C71.875 252.188 70.1458 252.583 68.3125 253.375C66.4792 254.125 65.5417 255.104 65.5 256.312C66.2917 257.521 67.4583 258.542 69 259.375ZM76.3125 242.875C75.5208 242.083 74.5833 241.688 73.5 241.688C72.4167 241.688 71.4792 242.083 70.6875 242.875C69.8958 243.667 69.5 244.604 69.5 245.688C69.5 246.771 69.8958 247.708 70.6875 248.5C71.4792 249.292 72.4167 249.688 73.5 249.688C74.5833 249.688 75.5208 249.292 76.3125 248.5C77.1042 247.708 77.5 246.771 77.5 245.688C77.5 244.604 77.1042 243.667 76.3125 242.875ZM64.0625 241.625C66.6875 239 69.8333 237.688 73.5 237.688C77.1667 237.688 80.2917 239 82.875 241.625C85.5 244.208 86.8125 247.333 86.8125 251C86.8125 254.667 85.5 257.812 82.875 260.438C80.2917 263.021 77.1667 264.312 73.5 264.312C69.8333 264.312 66.6875 263.021 64.0625 260.438C61.4792 257.812 60.1875 254.667 60.1875 251C60.1875 247.333 61.4792 244.208 64.0625 241.625Z" fill="#888888"/>
<path d="M48.7083 283.622H54.6263C56.2837 283.622 57.589 284.04 58.5423 284.876C59.5103 285.697 59.9943 286.871 59.9943 288.396C59.9943 289.951 59.5177 291.131 58.5643 291.938C57.611 292.73 56.2983 293.126 54.6263 293.126H50.9523V299H48.7083V283.622ZM54.3843 291.256C55.411 291.256 56.225 291.043 56.8263 290.618C57.4277 290.193 57.7283 289.452 57.7283 288.396C57.7283 287.34 57.4277 286.599 56.8263 286.174C56.225 285.734 55.411 285.514 54.3843 285.514H50.9523V291.256H54.3843ZM66.5691 299.33C64.6184 299.33 63.0857 298.846 61.9711 297.878C60.8711 296.895 60.3211 295.517 60.3211 293.742C60.3211 292.011 60.8124 290.64 61.7951 289.628C62.7924 288.616 64.2077 288.11 66.0411 288.11C67.2584 288.11 68.2924 288.345 69.1431 288.814C69.9937 289.269 70.6317 289.907 71.0571 290.728C71.4971 291.535 71.7171 292.459 71.7171 293.5V294.6H62.4331C62.5064 295.597 62.9244 296.345 63.6871 296.844C64.4644 297.328 65.5131 297.57 66.8331 297.57C67.5077 297.57 68.1897 297.511 68.8791 297.394C69.5684 297.262 70.1771 297.093 70.7051 296.888V298.67C70.2357 298.861 69.6124 299.015 68.8351 299.132C68.0724 299.264 67.3171 299.33 66.5691 299.33ZM69.6271 293.038C69.5977 292.041 69.2677 291.271 68.6371 290.728C68.0211 290.171 67.1411 289.892 65.9971 289.892C64.8824 289.892 64.0171 290.178 63.4011 290.75C62.7851 291.322 62.4624 292.085 62.4331 293.038H69.6271ZM74.1458 288.44H76.3018V290.332C76.7418 289.687 77.3578 289.21 78.1498 288.902C78.9565 288.594 79.8878 288.44 80.9438 288.44V290.178C79.8145 290.178 78.8465 290.361 78.0398 290.728C77.2332 291.095 76.6758 291.674 76.3678 292.466V299H74.1458V288.44ZM83.6589 290.156H82.0529V288.44H83.6589V286.438C83.6589 285.221 84.0476 284.282 84.8249 283.622C85.6023 282.962 86.5703 282.632 87.7289 282.632C88.3156 282.632 88.8876 282.72 89.4449 282.896V284.7C89.0343 284.539 88.6089 284.458 88.1689 284.458C87.4209 284.458 86.8489 284.641 86.4529 285.008C86.0716 285.36 85.8809 285.881 85.8809 286.57V288.44H93.0089V299H90.7869V290.156H85.8809V299H83.6589V290.156ZM91.8869 286.372C91.5056 286.372 91.1903 286.247 90.9409 285.998C90.6916 285.749 90.5669 285.441 90.5669 285.074C90.5669 284.707 90.6916 284.399 90.9409 284.15C91.2049 283.901 91.5203 283.776 91.8869 283.776C92.2536 283.776 92.5616 283.901 92.8109 284.15C93.0749 284.399 93.2069 284.707 93.2069 285.074C93.2069 285.441 93.0749 285.749 92.8109 285.998C92.5616 286.247 92.2536 286.372 91.8869 286.372ZM96.0599 282.742H98.2819V299H96.0599V282.742Z" fill="#888888"/>
<path d="M74.8125 376V373.312H72.1875V376H74.8125ZM74.8125 386.688V378.688H72.1875V386.688H74.8125ZM64.0625 370.625C66.6875 368 69.8333 366.688 73.5 366.688C77.1667 366.688 80.2917 368 82.875 370.625C85.5 373.208 86.8125 376.333 86.8125 380C86.8125 383.667 85.5 386.812 82.875 389.438C80.2917 392.021 77.1667 393.312 73.5 393.312C69.8333 393.312 66.6875 392.021 64.0625 389.438C61.4792 386.812 60.1875 383.667 60.1875 380C60.1875 376.333 61.4792 373.208 64.0625 370.625Z" fill="#888888"/>
<path d="M25.7234 428.33C24.8434 428.33 23.9707 428.249 23.1054 428.088C22.2547 427.941 21.5581 427.736 21.0154 427.472V425.448C22.4234 426.108 23.9414 426.438 25.5694 426.438C27.8574 426.438 29.0014 425.668 29.0014 424.128C29.0014 423.6 28.8767 423.175 28.6274 422.852C28.3781 422.529 28.0187 422.251 27.5494 422.016C27.0801 421.767 26.3174 421.429 25.2614 421.004C23.8094 420.417 22.7607 419.772 22.1154 419.068C21.4701 418.364 21.1474 417.477 21.1474 416.406C21.1474 415.599 21.3674 414.888 21.8074 414.272C22.2474 413.641 22.8634 413.157 23.6554 412.82C24.4474 412.468 25.3567 412.292 26.3834 412.292C27.2194 412.292 27.9747 412.358 28.6494 412.49C29.3241 412.622 29.9841 412.835 30.6294 413.128V415.064C29.3534 414.492 28.0627 414.206 26.7574 414.206C25.7014 414.206 24.8947 414.397 24.3374 414.778C23.7801 415.159 23.5014 415.702 23.5014 416.406C23.5014 416.89 23.6187 417.301 23.8534 417.638C24.1027 417.961 24.4621 418.254 24.9314 418.518C25.4154 418.767 26.1267 419.083 27.0654 419.464C28.1067 419.889 28.9281 420.293 29.5294 420.674C30.1307 421.055 30.5854 421.525 30.8934 422.082C31.2161 422.625 31.3774 423.307 31.3774 424.128C31.3774 425.463 30.9007 426.497 29.9474 427.23C28.9941 427.963 27.5861 428.33 25.7234 428.33ZM39.0312 428.33C37.8432 428.33 36.7945 428.11 35.8852 427.67C34.9905 427.215 34.2865 426.57 33.7732 425.734C33.2745 424.883 33.0252 423.886 33.0252 422.742C33.0252 421.613 33.2745 420.623 33.7732 419.772C34.2718 418.921 34.9758 418.269 35.8852 417.814C36.7945 417.345 37.8432 417.11 39.0312 417.11C40.2192 417.11 41.2678 417.345 42.1772 417.814C43.0865 418.269 43.7905 418.921 44.2892 419.772C44.8025 420.623 45.0592 421.613 45.0592 422.742C45.0592 423.886 44.8025 424.883 44.2892 425.734C43.7905 426.57 43.0865 427.215 42.1772 427.67C41.2678 428.11 40.2192 428.33 39.0312 428.33ZM39.0312 426.57C40.1752 426.57 41.0845 426.218 41.7592 425.514C42.4338 424.81 42.7712 423.886 42.7712 422.742C42.7712 421.554 42.4338 420.615 41.7592 419.926C41.0845 419.237 40.1752 418.892 39.0312 418.892C37.8872 418.892 36.9778 419.237 36.3032 419.926C35.6285 420.615 35.2912 421.554 35.2912 422.742C35.2912 423.886 35.6285 424.81 36.3032 425.514C36.9778 426.218 37.8872 426.57 39.0312 426.57ZM53.7067 428.33C52.7534 428.33 51.9247 428.183 51.2207 427.89C50.5314 427.582 49.8934 427.105 49.3067 426.46V428H47.1507V411.742H49.3727V418.848C49.8567 418.276 50.48 417.843 51.2427 417.55C52.0054 417.257 52.8267 417.11 53.7067 417.11C54.7627 417.11 55.7087 417.352 56.5447 417.836C57.3954 418.305 58.0554 418.965 58.5247 419.816C59.0087 420.667 59.2507 421.642 59.2507 422.742C59.2507 423.857 59.0087 424.839 58.5247 425.69C58.0554 426.526 57.3954 427.179 56.5447 427.648C55.7087 428.103 54.7627 428.33 53.7067 428.33ZM53.2007 426.57C53.9194 426.57 54.5647 426.416 55.1367 426.108C55.7234 425.785 56.178 425.331 56.5007 424.744C56.838 424.157 57.0067 423.49 57.0067 422.742C57.0067 421.994 56.838 421.327 56.5007 420.74C56.178 420.153 55.7234 419.699 55.1367 419.376C54.5647 419.053 53.9194 418.892 53.2007 418.892C52.306 418.892 51.5067 419.134 50.8027 419.618C50.0987 420.102 49.622 420.747 49.3727 421.554V423.93C49.6514 424.737 50.128 425.382 50.8027 425.866C51.492 426.335 52.2914 426.57 53.2007 426.57ZM61.6741 417.44H63.8301V419.332C64.2701 418.687 64.8861 418.21 65.6781 417.902C66.4848 417.594 67.4161 417.44 68.4721 417.44V419.178C67.3428 419.178 66.3748 419.361 65.5681 419.728C64.7615 420.095 64.2041 420.674 63.8961 421.466V428H61.6741V417.44ZM75.6032 428.33C73.6526 428.33 72.1199 427.846 71.0052 426.878C69.9052 425.895 69.3552 424.517 69.3552 422.742C69.3552 421.011 69.8466 419.64 70.8292 418.628C71.8266 417.616 73.2419 417.11 75.0752 417.11C76.2926 417.11 77.3266 417.345 78.1772 417.814C79.0279 418.269 79.6659 418.907 80.0912 419.728C80.5312 420.535 80.7512 421.459 80.7512 422.5V423.6H71.4672C71.5406 424.597 71.9586 425.345 72.7212 425.844C73.4986 426.328 74.5472 426.57 75.8672 426.57C76.5419 426.57 77.2239 426.511 77.9132 426.394C78.6026 426.262 79.2112 426.093 79.7392 425.888V427.67C79.2699 427.861 78.6466 428.015 77.8692 428.132C77.1066 428.264 76.3512 428.33 75.6032 428.33ZM78.6612 422.038C78.6319 421.041 78.3019 420.271 77.6712 419.728C77.0552 419.171 76.1752 418.892 75.0312 418.892C73.9166 418.892 73.0512 419.178 72.4352 419.75C71.8192 420.322 71.4966 421.085 71.4672 422.038H78.6612ZM91.3226 417.44H93.4786V418.958C93.9772 418.327 94.5859 417.865 95.3046 417.572C96.0379 417.264 96.8006 417.11 97.5926 417.11C99.0006 417.11 100.049 417.484 100.739 418.232C101.428 418.98 101.773 419.985 101.773 421.246V428H99.5506V421.466C99.5506 419.75 98.7292 418.892 97.0866 418.892C96.3826 418.892 95.7226 419.061 95.1066 419.398C94.5052 419.721 93.9846 420.219 93.5446 420.894V428H91.3226V417.44ZM110.022 412.468H112.376L110.55 416.252H108.526L110.022 412.468ZM109.758 428.33C108.57 428.33 107.521 428.11 106.612 427.67C105.717 427.215 105.013 426.57 104.5 425.734C104.001 424.883 103.752 423.886 103.752 422.742C103.752 421.613 104.001 420.623 104.5 419.772C104.998 418.921 105.702 418.269 106.612 417.814C107.521 417.345 108.57 417.11 109.758 417.11C110.946 417.11 111.994 417.345 112.904 417.814C113.813 418.269 114.517 418.921 115.016 419.772C115.529 420.623 115.786 421.613 115.786 422.742C115.786 423.886 115.529 424.883 115.016 425.734C114.517 426.57 113.813 427.215 112.904 427.67C111.994 428.11 110.946 428.33 109.758 428.33ZM109.758 426.57C110.902 426.57 111.811 426.218 112.486 425.514C113.16 424.81 113.498 423.886 113.498 422.742C113.498 421.554 113.16 420.615 112.486 419.926C111.811 419.237 110.902 418.892 109.758 418.892C108.614 418.892 107.704 419.237 107.03 419.926C106.355 420.615 106.018 421.554 106.018 422.742C106.018 423.886 106.355 424.81 107.03 425.514C107.704 426.218 108.614 426.57 109.758 426.57ZM121.535 428.33C120.802 428.33 120.024 428.235 119.203 428.044C118.382 427.868 117.736 427.626 117.267 427.318V425.426C117.839 425.763 118.499 426.042 119.247 426.262C119.995 426.467 120.721 426.57 121.425 426.57C122.217 426.57 122.796 426.475 123.163 426.284C123.53 426.093 123.713 425.785 123.713 425.36C123.713 425.037 123.625 424.781 123.449 424.59C123.288 424.385 123.002 424.201 122.591 424.04C122.195 423.879 121.594 423.688 120.787 423.468C119.922 423.219 119.232 422.969 118.719 422.72C118.22 422.456 117.839 422.126 117.575 421.73C117.326 421.334 117.201 420.821 117.201 420.19C117.201 419.178 117.597 418.415 118.389 417.902C119.196 417.374 120.274 417.11 121.623 417.11C122.327 417.11 123.016 417.176 123.691 417.308C124.366 417.44 124.908 417.623 125.319 417.858V419.706C124.894 419.457 124.366 419.259 123.735 419.112C123.119 418.965 122.488 418.892 121.843 418.892C121.066 418.892 120.472 418.987 120.061 419.178C119.65 419.369 119.445 419.706 119.445 420.19C119.445 420.498 119.533 420.747 119.709 420.938C119.885 421.129 120.164 421.297 120.545 421.444C120.941 421.576 121.564 421.752 122.415 421.972C123.75 422.339 124.674 422.771 125.187 423.27C125.715 423.769 125.979 424.458 125.979 425.338C125.979 426.247 125.605 426.973 124.857 427.516C124.109 428.059 123.002 428.33 121.535 428.33Z" fill="#888888"/>
<path d="M62.8125 499.688V518.312H73.5V521H62.8125C62.1042 521 61.4792 520.729 60.9375 520.188C60.4375 519.646 60.1875 519.021 60.1875 518.312V499.688C60.1875 498.979 60.4375 498.354 60.9375 497.812C61.4792 497.271 62.1042 497 62.8125 497H73.5V499.688H62.8125ZM80.1875 502.312L86.8125 509L80.1875 515.688L78.3125 513.75L81.75 510.312H68.1875V507.688H81.75L78.3125 504.188L80.1875 502.312Z" fill="#888888"/>
<path d="M59.7869 557.33C58.9069 557.33 58.0342 557.249 57.1689 557.088C56.3182 556.941 55.6215 556.736 55.0789 556.472V554.448C56.4869 555.108 58.0049 555.438 59.6329 555.438C61.9209 555.438 63.0649 554.668 63.0649 553.128C63.0649 552.6 62.9402 552.175 62.6909 551.852C62.4415 551.529 62.0822 551.251 61.6129 551.016C61.1435 550.767 60.3809 550.429 59.3249 550.004C57.8729 549.417 56.8242 548.772 56.1789 548.068C55.5335 547.364 55.2109 546.477 55.2109 545.406C55.2109 544.599 55.4309 543.888 55.8709 543.272C56.3109 542.641 56.9269 542.157 57.7189 541.82C58.5109 541.468 59.4202 541.292 60.4469 541.292C61.2829 541.292 62.0382 541.358 62.7129 541.49C63.3875 541.622 64.0475 541.835 64.6929 542.128V544.064C63.4169 543.492 62.1262 543.206 60.8209 543.206C59.7649 543.206 58.9582 543.397 58.4009 543.778C57.8435 544.159 57.5649 544.702 57.5649 545.406C57.5649 545.89 57.6822 546.301 57.9169 546.638C58.1662 546.961 58.5255 547.254 58.9949 547.518C59.4789 547.767 60.1902 548.083 61.1289 548.464C62.1702 548.889 62.9915 549.293 63.5929 549.674C64.1942 550.055 64.6489 550.525 64.9569 551.082C65.2795 551.625 65.4409 552.307 65.4409 553.128C65.4409 554.463 64.9642 555.497 64.0109 556.23C63.0575 556.963 61.6495 557.33 59.7869 557.33ZM71.3126 557.33C70.0366 557.33 69.01 557.007 68.2326 556.362C67.47 555.702 67.0886 554.815 67.0886 553.7C67.0886 552.527 67.4553 551.625 68.1886 550.994C68.9366 550.349 69.9926 550.026 71.3566 550.026C72.8086 550.026 74.0406 550.319 75.0526 550.906V550.356C75.0526 549.52 74.796 548.904 74.2826 548.508C73.784 548.097 72.992 547.892 71.9066 547.892C71.2613 547.892 70.6306 547.958 70.0146 548.09C69.4133 548.207 68.8706 548.376 68.3866 548.596V546.792C68.8266 546.587 69.3986 546.425 70.1026 546.308C70.8066 546.176 71.4886 546.11 72.1486 546.11C73.894 546.11 75.1846 546.499 76.0206 547.276C76.8713 548.039 77.2966 549.102 77.2966 550.466V557H75.2066V555.812C74.752 556.311 74.2093 556.692 73.5786 556.956C72.9626 557.205 72.2073 557.33 71.3126 557.33ZM71.8626 555.636C72.5666 555.636 73.2046 555.497 73.7766 555.218C74.3486 554.939 74.774 554.551 75.0526 554.052V552.622C74.0993 552.006 73.036 551.698 71.8626 551.698C71.012 551.698 70.374 551.867 69.9486 552.204C69.538 552.527 69.3326 553.025 69.3326 553.7C69.3326 554.991 70.176 555.636 71.8626 555.636ZM81.352 544.372C80.9854 544.372 80.6774 544.247 80.428 543.998C80.1787 543.749 80.054 543.441 80.054 543.074C80.054 542.707 80.1787 542.399 80.428 542.15C80.6774 541.901 80.9854 541.776 81.352 541.776C81.7334 541.776 82.0487 541.901 82.298 542.15C82.562 542.399 82.694 542.707 82.694 543.074C82.694 543.441 82.562 543.749 82.298 543.998C82.0487 544.247 81.7334 544.372 81.352 544.372ZM80.23 546.44H82.496V557H80.23V546.44ZM85.554 546.44H87.71V548.332C88.15 547.687 88.766 547.21 89.558 546.902C90.3647 546.594 91.296 546.44 92.352 546.44V548.178C91.2227 548.178 90.2547 548.361 89.448 548.728C88.6414 549.095 88.084 549.674 87.776 550.466V557H85.554V546.44Z" fill="#888888"/>
</svg>
